<svg xmlns="http://www.w3.org/2000/svg" width="270" height="269" viewBox="0 0 270 269" version="1.1"><path d="" stroke="none" fill="#ffbc5c" fill-rule="evenodd"/><path d="M 31.892 1.449 C 17.340 5.463, 5.406 17.661, 1.552 32.460 C 0.201 37.647, 0 50.892, 0 134.500 C 0 239.225, -0.140 236.461, 5.698 247.186 C 9.373 253.939, 17.760 261.518, 25.741 265.299 L 32.500 268.500 87.500 268.500 L 142.500 268.500 149.259 265.299 C 162.099 259.216, 171.528 247.329, 173.995 234.114 C 174.548 231.151, 175 220.569, 175 210.598 C 175 190.141, 174.224 187.198, 167.938 183.827 C 163.364 181.374, 159 181.526, 154.912 184.280 C 149.442 187.966, 149.032 189.687, 149.009 209 C 148.987 227.930, 148.263 232.346, 144.433 236.897 C 139.272 243.031, 138.501 243.108, 85.421 242.789 L 37.342 242.500 33.670 239.698 C 25.974 233.826, 26.532 241.557, 26.230 136.681 C 26.053 74.996, 26.311 41.560, 26.983 39.062 C 28.382 33.867, 31.565 30.102, 36.421 27.896 C 40.201 26.180, 43.877 26.043, 86.500 26.028 C 116.873 26.017, 133.843 26.384, 136.453 27.109 C 141.508 28.512, 146.488 33.492, 147.891 38.547 C 148.495 40.721, 148.998 49.475, 149.009 58 C 149.032 75.159, 149.535 77.096, 154.912 80.720 C 158.960 83.448, 163.251 83.621, 168 81.248 C 174.034 78.234, 174.997 74.815, 174.998 56.386 C 175 38.178, 174.089 31.790, 170.413 24.250 C 167.043 17.339, 159.383 9.071, 153.264 5.740 C 143.010 0.159, 141.033 -0.008, 86.540 0.089 C 49.397 0.156, 35.312 0.506, 31.892 1.449 M 208.123 77.027 C 201.390 78.567, 197.121 86.244, 199.074 93.299 C 199.660 95.415, 204.035 100.563, 211.980 108.484 C 218.591 115.076, 224 120.853, 224 121.323 C 224 121.793, 201.163 122.093, 173.250 121.990 C 105.617 121.741, 112.643 121.384, 108.387 125.284 C 101.430 131.660, 102.922 142.246, 111.316 146.057 C 115.260 147.847, 118.622 147.957, 169.920 147.978 L 224.341 148 211.826 160.750 C 201.745 171.021, 199.177 174.219, 198.620 177.197 C 196.858 186.623, 206.269 195.047, 215.250 192.082 C 217.431 191.363, 226.710 182.800, 243.319 166.181 C 263.301 146.187, 268.286 140.664, 268.931 137.807 C 270.522 130.752, 268.670 128.192, 244.303 103.745 C 231.761 91.162, 220.375 80.063, 219 79.080 C 215.713 76.729, 212.268 76.079, 208.123 77.027" stroke="none" fill="#fcbc5c" fill-rule="evenodd"/></svg>