<?xml version="1.0" encoding="UTF-8"?>
<svg xmlns="http://www.w3.org/2000/svg" version="1.1" width="142px" height="143px" style="shape-rendering:geometricPrecision; text-rendering:geometricPrecision; image-rendering:optimizeQuality; fill-rule:evenodd; clip-rule:evenodd" xmlns:xlink="http://www.w3.org/1999/xlink">
<g><path style="opacity:0.904" fill="#fcbc59" d="M 141.5,110.5 C 141.5,113.167 141.5,115.833 141.5,118.5C 139.61,122.04 136.61,124.04 132.5,124.5C 123.295,122.098 114.295,119.098 105.5,115.5C 97.5457,119.072 89.2123,121.239 80.5,122C 65.7552,138.966 47.7552,143.466 26.5,135.5C 20.2589,137.787 13.9256,139.787 7.5,141.5C 3.8048,141.29 1.13813,139.623 -0.5,136.5C -0.5,134.167 -0.5,131.833 -0.5,129.5C 1.57488,124.455 3.57488,119.288 5.5,114C -2.83916,93.1925 1.32751,75.3592 18,60.5C 22.125,24.0418 42.4583,4.04183 79,0.5C 113.379,3.21404 133.379,21.5474 139,55.5C 139.817,66.6151 137.983,77.2818 133.5,87.5C 135.802,95.4093 138.468,103.076 141.5,110.5 Z M 72.5,10.5 C 100.095,9.93448 118.595,22.6011 128,48.5C 129.455,55.4436 129.788,62.4436 129,69.5C 127.447,75.6011 125.613,81.6011 123.5,87.5C 126.077,96.4857 129.077,105.319 132.5,114C 123.298,111.601 114.131,108.768 105,105.5C 76.3972,118.018 53.0638,111.685 35,86.5C 22.7371,60.4717 27.5705,38.305 49.5,20C 56.5936,15.1437 64.2602,11.977 72.5,10.5 Z M 18.5,73.5 C 26.1579,98.6545 42.8246,114.488 68.5,121C 55.4456,130.578 41.4456,132.078 26.5,125.5C 21.4158,126.873 16.4158,128.54 11.5,130.5C 11.1667,130 10.8333,129.5 10.5,129C 12.2675,123.864 13.9341,118.698 15.5,113.5C 8.21328,99.5178 9.21328,86.1845 18.5,73.5 Z"/></g>
<g><path style="opacity:0.957" fill="#fcbc59" d="M 51.5,38.5 C 69.8364,38.3334 88.1697,38.5001 106.5,39C 108.706,41.209 109.04,43.709 107.5,46.5C 88.5088,47.6664 69.5088,47.833 50.5,47C 49.0406,43.9295 49.3739,41.0961 51.5,38.5 Z"/></g>
<g><path style="opacity:0.869" fill="#fcbc59" d="M 51.5,55.5 C 69.5031,55.3334 87.5031,55.5001 105.5,56C 108.379,57.6658 109.212,60.1658 108,63.5C 106.933,64.1905 105.766,64.6905 104.5,65C 87.1667,65.6667 69.8333,65.6667 52.5,65C 48.86,62.3016 48.5267,59.135 51.5,55.5 Z"/></g>
<g><path style="opacity:0.921" fill="#fcbc59" d="M 50.5,73.5 C 62.8378,73.3335 75.1712,73.5001 87.5,74C 90.1667,76.6667 90.1667,79.3333 87.5,82C 75.5,82.6667 63.5,82.6667 51.5,82C 49.2645,79.4149 48.9312,76.5815 50.5,73.5 Z"/></g>
</svg>
