<?xml version="1.0" encoding="UTF-8"?>
<!DOCTYPE svg PUBLIC "-//W3C//DTD SVG 1.1//EN" "http://www.w3.org/Graphics/SVG/1.1/DTD/svg11.dtd">
<svg xmlns="http://www.w3.org/2000/svg" version="1.1" width="155px" height="155px" style="shape-rendering:geometricPrecision; text-rendering:geometricPrecision; image-rendering:optimizeQuality; fill-rule:evenodd; clip-rule:evenodd" xmlns:xlink="http://www.w3.org/1999/xlink">
<g><path style="opacity:0.972" fill="#5e72b7" d="M 133.5,120.5 C 132.819,109.445 131.653,98.4454 130,87.5C 124.79,83.9173 118.957,82.084 112.5,82C 110.808,74.2544 108.475,66.5877 105.5,59C 109.137,51.5602 112.637,44.0602 116,36.5C 116.667,34.5 116.667,32.5 116,30.5C 110.917,29.6929 105.75,29.1929 100.5,29C 97.0133,23.8605 94.18,18.3605 92,12.5C 90.9384,11.1007 89.605,10.1007 88,9.5C 82.6217,13.8823 77.6217,18.5489 73,23.5C 68.6945,21.2136 64.3612,18.8802 60,16.5C 58.5272,16.9031 57.1939,17.5697 56,18.5C 56.3333,27.8333 56.6667,37.1667 57,46.5C 47.4238,49.7422 40.7571,56.0756 37,65.5C 32.9648,69.2002 29.2981,73.2002 26,77.5C 24.5236,82.0759 24.1902,86.7426 25,91.5C 27.0072,96.0028 28.8406,100.503 30.5,105C 29.6124,113.141 29.279,121.308 29.5,129.5C 18.6444,120.749 11.4777,109.416 8,95.5C 1.0039,59.3394 13.1706,31.8394 44.5,13C 79.9851,-1.57406 110.152,5.59261 135,34.5C 150.122,57.5499 152.456,81.8832 142,107.5C 139.64,112.24 136.807,116.574 133.5,120.5 Z"/></g>
<g><path style="opacity:1" fill="#101012" d="M 133.5,120.5 C 131.823,122.54 130.156,124.54 128.5,126.5C 127.833,116.167 127.167,105.833 126.5,95.5C 124.062,89.1109 119.395,86.6109 112.5,88C 112.132,91.3778 112.132,94.8778 112.5,98.5C 112.5,111.833 112.5,125.167 112.5,138.5C 111.486,139.674 110.153,140.34 108.5,140.5C 107.905,119.293 106.738,97.9596 105,76.5C 104.902,69.3743 102.402,63.3743 97.5,58.5C 96.0106,54.8467 93.3439,52.3467 89.5,51C 76.3739,48.1358 63.7073,49.4691 51.5,55C 48.436,57.2072 46.436,60.0406 45.5,63.5C 53.5471,63.2773 61.5471,63.7773 69.5,65C 84.1576,67.7722 89.6576,76.6056 86,91.5C 84.2772,98.4488 80.1105,103.282 73.5,106C 61.7743,109.459 50.1076,109.293 38.5,105.5C 37.5836,105.543 36.9169,105.876 36.5,106.5C 35.6703,115.324 35.1703,124.324 35,133.5C 34.1841,132.177 33.0174,131.511 31.5,131.5C 30.5,131.167 29.8333,130.5 29.5,129.5C 29.279,121.308 29.6124,113.141 30.5,105C 28.8406,100.503 27.0072,96.0028 25,91.5C 24.1902,86.7426 24.5236,82.0759 26,77.5C 29.2981,73.2002 32.9648,69.2002 37,65.5C 40.7571,56.0756 47.4238,49.7422 57,46.5C 56.6667,37.1667 56.3333,27.8333 56,18.5C 57.1939,17.5697 58.5272,16.9031 60,16.5C 64.3612,18.8802 68.6945,21.2136 73,23.5C 77.6217,18.5489 82.6217,13.8823 88,9.5C 89.605,10.1007 90.9384,11.1007 92,12.5C 94.18,18.3605 97.0133,23.8605 100.5,29C 105.75,29.1929 110.917,29.6929 116,30.5C 116.667,32.5 116.667,34.5 116,36.5C 112.637,44.0602 109.137,51.5602 105.5,59C 108.475,66.5877 110.808,74.2544 112.5,82C 118.957,82.084 124.79,83.9173 130,87.5C 131.653,98.4454 132.819,109.445 133.5,120.5 Z"/></g>
<g><path style="opacity:1" fill="#f3e91f" d="M 98.5,34.5 C 99.5676,35.4345 100.901,35.7678 102.5,35.5C 102.422,39.656 100.755,42.9894 97.5,45.5C 93.6333,41.3978 88.9667,38.5644 83.5,37C 76.4819,36.4346 69.4819,36.6012 62.5,37.5C 62.7373,36.209 62.404,35.209 61.5,34.5C 61.0024,30.4249 61.0024,26.4249 61.5,22.5C 64.6985,24.8635 68.0319,27.0302 71.5,29C 72.8333,29.6667 74.1667,29.6667 75.5,29C 79.7849,24.2599 83.9516,19.4266 88,14.5C 90.6096,20.0526 92.9429,25.7192 95,31.5C 96.0391,32.7101 97.2058,33.7101 98.5,34.5 Z"/></g>
<g><path style="opacity:1" fill="#eb8c21" d="M 61.5,34.5 C 62.404,35.209 62.7373,36.209 62.5,37.5C 69.4819,36.6012 76.4819,36.4346 83.5,37C 88.9667,38.5644 93.6333,41.3978 97.5,45.5C 100.755,42.9894 102.422,39.656 102.5,35.5C 100.901,35.7678 99.5676,35.4345 98.5,34.5C 102.846,34.3343 107.179,34.501 111.5,35C 108.703,41.4292 105.536,47.5959 102,53.5C 99.5515,52.0557 97.3848,50.2224 95.5,48C 93.1667,47 90.8333,46 88.5,45C 79.8397,44.5002 71.1731,44.3336 62.5,44.5C 62.3841,41.1401 62.0508,37.8067 61.5,34.5 Z"/></g>
<g><path style="opacity:1" fill="#3261ac" d="M 97.5,58.5 C 99.2054,64.1961 100.205,70.0294 100.5,76C 99.1877,89.1865 97.6877,102.353 96,115.5C 89.8115,134.69 76.6448,142.19 56.5,138C 42.6879,132.242 36.0212,121.742 36.5,106.5C 36.9169,105.876 37.5836,105.543 38.5,105.5C 50.1076,109.293 61.7743,109.459 73.5,106C 80.1105,103.282 84.2772,98.4488 86,91.5C 89.6576,76.6056 84.1576,67.7722 69.5,65C 61.5471,63.7773 53.5471,63.2773 45.5,63.5C 46.436,60.0406 48.436,57.2072 51.5,55C 63.7073,49.4691 76.3739,48.1358 89.5,51C 93.3439,52.3467 96.0106,54.8467 97.5,58.5 Z"/></g>
<g><path style="opacity:1" fill="#27346c" d="M 97.5,58.5 C 102.402,63.3743 104.902,69.3743 105,76.5C 106.738,97.9596 107.905,119.293 108.5,140.5C 85.2344,151.678 62.2344,150.845 39.5,138C 36.5798,136.054 33.9131,133.887 31.5,131.5C 33.0174,131.511 34.1841,132.177 35,133.5C 35.1703,124.324 35.6703,115.324 36.5,106.5C 36.0212,121.742 42.6879,132.242 56.5,138C 76.6448,142.19 89.8115,134.69 96,115.5C 97.6877,102.353 99.1877,89.1865 100.5,76C 100.205,70.0294 99.2054,64.1961 97.5,58.5 Z"/></g>
<g><path style="opacity:1" fill="#88c9dc" d="M 76.5,72.5 C 76.8484,82.3205 72.1817,88.1539 62.5,90C 50.8573,93.2034 40.1906,91.3701 30.5,84.5C 31.8444,75.986 36.8444,70.8193 45.5,69C 56.2413,67.8102 66.5747,68.9768 76.5,72.5 Z"/></g>
<g><path style="opacity:1" fill="#f8fcfd" d="M 46.5,72.5 C 51.9302,72.161 57.2636,72.661 62.5,74C 64.4394,77.6892 63.4394,80.0226 59.5,81C 52.8417,81.4996 46.175,81.6663 39.5,81.5C 39.3398,79.8008 39.5065,78.1341 40,76.5C 42.0948,74.8753 44.2615,73.5419 46.5,72.5 Z"/></g>
<g><path style="opacity:1" fill="#34707e" d="M 76.5,72.5 C 78.5041,73.6728 80.0041,75.3395 81,77.5C 83.372,95.9638 75.2053,104.631 56.5,103.5C 48.1343,103.66 40.4677,101.493 33.5,97C 30.5149,93.2282 29.5149,89.0616 30.5,84.5C 40.1906,91.3701 50.8573,93.2034 62.5,90C 72.1817,88.1539 76.8484,82.3205 76.5,72.5 Z"/></g>
<g><path style="opacity:1" fill="#345ea4" d="M 126.5,95.5 C 126.663,97.8568 126.497,100.19 126,102.5C 122.177,99.0364 117.677,97.7031 112.5,98.5C 112.132,94.8778 112.132,91.3778 112.5,88C 119.395,86.6109 124.062,89.1109 126.5,95.5 Z"/></g>
<g><path style="opacity:1" fill="#293476" d="M 126.5,95.5 C 127.167,105.833 127.833,116.167 128.5,126.5C 124.021,131.647 118.687,135.647 112.5,138.5C 112.5,125.167 112.5,111.833 112.5,98.5C 117.677,97.7031 122.177,99.0364 126,102.5C 126.497,100.19 126.663,97.8568 126.5,95.5 Z"/></g>
</svg>
