<?xml version="1.0" encoding="UTF-8"?>
<!DOCTYPE svg PUBLIC "-//W3C//DTD SVG 1.1//EN" "http://www.w3.org/Graphics/SVG/1.1/DTD/svg11.dtd">
<svg xmlns="http://www.w3.org/2000/svg" version="1.1" width="591px" height="237px" style="shape-rendering:geometricPrecision; text-rendering:geometricPrecision; image-rendering:optimizeQuality; fill-rule:evenodd; clip-rule:evenodd" xmlns:xlink="http://www.w3.org/1999/xlink">
<g><path style="opacity:0.981" fill="#fcbc5b" d="M 522.5,28.5 C 522.062,28.4346 521.728,28.6012 521.5,29C 525.212,34.9984 526.379,41.4984 525,48.5C 520.358,73.5408 515.525,98.5408 510.5,123.5C 510.124,128.121 512.124,130.788 516.5,131.5C 521.61,130.233 525.443,127.233 528,122.5C 531.408,115.872 533.741,108.872 535,101.5C 538.04,95.3974 542.874,93.2307 549.5,95C 551.986,95.6556 553.653,97.1556 554.5,99.5C 553.653,117.021 546.987,131.854 534.5,144C 523.161,152.754 510.828,154.588 497.5,149.5C 489.274,143.714 485.274,135.714 485.5,125.5C 489.421,101.396 493.921,77.3962 499,53.5C 499.498,50.1832 499.665,46.8499 499.5,43.5C 499.084,41.2475 497.751,39.7475 495.5,39C 485.992,38.0052 479.159,41.8386 475,50.5C 467.692,83.0111 461.025,115.678 455,148.5C 452.815,160.432 445.815,164.765 434,161.5C 429.889,163.138 425.723,164.638 421.5,166C 415.057,166.769 408.723,166.269 402.5,164.5C 393.061,158.792 388.728,150.292 389.5,139C 393.52,113.232 398.187,87.565 403.5,62C 403.227,60.4672 402.894,58.9672 402.5,57.5C 402.141,55.629 401.141,54.129 399.5,53C 389.138,51.6989 381.972,55.8656 378,65.5C 371,99.4976 364,133.498 357,167.5C 355.998,171.68 353.498,174.514 349.5,176C 340.869,175.723 332.536,177.057 324.5,180C 319.5,180.667 314.5,180.667 309.5,180C 307.481,179.55 305.648,178.717 304,177.5C 303.601,177.728 303.435,178.062 303.5,178.5C 294.563,172.609 291.063,164.276 293,153.5C 294.952,145.573 296.452,137.573 297.5,129.5C 296.722,126.39 294.722,124.724 291.5,124.5C 286.094,126.88 280.427,127.88 274.5,127.5C 273.833,127.5 273.167,127.5 272.5,127.5C 271.443,125.059 270.11,122.725 268.5,120.5C 268.167,121.167 267.833,121.833 267.5,122.5C 263.186,143.573 258.686,164.573 254,185.5C 249.521,191.012 243.688,193.012 236.5,191.5C 233.522,190.522 231.522,188.522 230.5,185.5C 231.974,183.039 231.807,180.706 230,178.5C 224.764,180.752 219.264,181.918 213.5,182C 208.5,186.333 203.5,190.667 198.5,195C 183.867,202.602 168.867,203.435 153.5,197.5C 144.064,190.628 139.397,181.295 139.5,169.5C 143.418,144.076 147.918,118.742 153,93.5C 159.827,72.0831 174.494,61.0831 197,60.5C 210.658,60.4131 221.492,65.7464 229.5,76.5C 232.269,83.5697 233.102,90.9031 232,98.5C 227.676,119.779 224.009,141.112 221,162.5C 223.617,161.781 225.784,160.447 227.5,158.5C 231.219,155.946 234.052,152.613 236,148.5C 241.923,120.218 247.59,91.8851 253,63.5C 257.006,49.888 265.173,46.5547 277.5,53.5C 295.169,43.6022 310.835,45.9355 324.5,60.5C 329.536,76.9536 327.202,92.287 317.5,106.5C 317.848,108.848 319.182,110.182 321.5,110.5C 322.338,110.842 322.672,111.508 322.5,112.5C 324.269,118.723 324.769,125.057 324,131.5C 321.929,139.282 320.096,147.116 318.5,155C 318.398,159.09 320.065,160.59 323.5,159.5C 329.02,158.149 332.853,154.816 335,149.5C 342.462,113.191 349.795,76.8581 357,40.5C 364.073,33.1456 371.407,32.8123 379,39.5C 388.597,30.5549 399.764,28.0549 412.5,32C 418.279,34.6248 422.946,38.4582 426.5,43.5C 427.688,47.9379 428.688,52.4379 429.5,57C 424.068,83.9271 419.068,110.927 414.5,138C 413.83,142.181 415.497,144.681 419.5,145.5C 426.004,144.496 430.171,140.829 432,134.5C 438.826,98.3692 446.159,62.3692 454,26.5C 460.305,19.286 467.305,18.6193 475,24.5C 488.249,14.817 502.082,13.9837 516.5,22C 518.706,24.0367 520.706,26.2034 522.5,28.5 Z M 300.5,75.5 C 302.468,83.0041 301.301,90.0041 297,96.5C 290.465,97.1198 283.965,98.1198 277.5,99.5C 278.037,90.7143 281.704,83.5477 288.5,78C 292.313,76.228 296.313,75.3947 300.5,75.5 Z M 205.5,86.5 C 206.851,88.423 207.518,90.5897 207.5,93C 204.717,109.914 201.55,126.748 198,143.5C 190.18,143.667 184.847,147.333 182,154.5C 181.333,157.5 181.333,160.5 182,163.5C 183.923,167.258 186.423,170.591 189.5,173.5C 184.109,180.974 177.442,182.641 169.5,178.5C 172.82,151.246 177.654,124.246 184,97.5C 188.431,88.3681 195.598,84.7014 205.5,86.5 Z"/></g>
<g><path style="opacity:0.916" fill="#98b69d" d="M 522.5,28.5 C 528.409,32.991 531.076,38.991 530.5,46.5C 526.53,74.018 521.53,101.351 515.5,128.5C 516.127,129.417 516.461,130.417 516.5,131.5C 512.124,130.788 510.124,128.121 510.5,123.5C 515.525,98.5408 520.358,73.5408 525,48.5C 526.379,41.4984 525.212,34.9984 521.5,29C 521.728,28.6012 522.062,28.4346 522.5,28.5 Z"/></g>
<g><path style="opacity:0.913" fill="#97b69d" d="M 499.5,43.5 C 490.105,42.7815 483.605,46.7815 480,55.5C 472.95,88.4158 466.284,121.416 460,154.5C 457.238,165.719 450.238,169.719 439,166.5C 428.831,171.889 418.331,172.723 407.5,169C 405.292,167.953 403.626,166.453 402.5,164.5C 408.723,166.269 415.057,166.769 421.5,166C 425.723,164.638 429.889,163.138 434,161.5C 445.815,164.765 452.815,160.432 455,148.5C 461.025,115.678 467.692,83.0111 475,50.5C 479.159,41.8386 485.992,38.0052 495.5,39C 497.751,39.7475 499.084,41.2475 499.5,43.5 Z"/></g>
<g><path style="opacity:0.917" fill="#98b69d" d="M 426.5,43.5 C 432.093,47.6892 434.759,53.3559 434.5,60.5C 429.368,88.8268 424.368,117.16 419.5,145.5C 415.497,144.681 413.83,142.181 414.5,138C 419.068,110.927 424.068,83.9271 429.5,57C 428.688,52.4379 427.688,47.9379 426.5,43.5 Z"/></g>
<g><path style="opacity:0.914" fill="#98b69d" d="M 402.5,57.5 C 393.989,57.174 387.822,60.8407 384,68.5C 376.822,101.055 370.156,133.721 364,166.5C 362.078,178.613 355.245,183.279 343.5,180.5C 336.579,183.309 329.413,184.975 322,185.5C 314.656,186 308.489,183.667 303.5,178.5C 303.435,178.062 303.601,177.728 304,177.5C 305.648,178.717 307.481,179.55 309.5,180C 314.5,180.667 319.5,180.667 324.5,180C 332.536,177.057 340.869,175.723 349.5,176C 353.498,174.514 355.998,171.68 357,167.5C 364,133.498 371,99.4976 378,65.5C 381.972,55.8656 389.138,51.6989 399.5,53C 401.141,54.129 402.141,55.629 402.5,57.5 Z"/></g>
<g><path style="opacity:0.894" fill="#98b69d" d="M 324.5,60.5 C 327.559,62.3974 329.726,65.0641 331,68.5C 334.889,84.2366 331.723,98.2366 321.5,110.5C 319.182,110.182 317.848,108.848 317.5,106.5C 327.202,92.287 329.536,76.9536 324.5,60.5 Z"/></g>
<g><path style="opacity:0.927" fill="#98b69d" d="M 300.5,75.5 C 296.313,75.3947 292.313,76.228 288.5,78C 281.704,83.5477 278.037,90.7143 277.5,99.5C 276.432,101.74 274.766,103.574 272.5,105C 271.517,105.591 270.85,105.257 270.5,104C 271.527,95.0556 274.027,86.5556 278,78.5C 282.806,72.5099 288.973,70.0099 296.5,71C 298.751,71.7475 300.084,73.2475 300.5,75.5 Z"/></g>
<g><path style="opacity:0.975" fill="#fcbc5b" d="M 126.5,87.5 C 129.711,93.2763 130.211,99.2763 128,105.5C 126.786,107.049 125.286,108.215 123.5,109C 120.305,109.181 117.305,109.681 114.5,110.5C 111.833,108.5 109.5,106.167 107.5,103.5C 101.713,94.5276 95.2133,94.1943 88,102.5C 85.8807,109.948 88.0474,115.948 94.5,120.5C 105.148,128.149 114.482,137.149 122.5,147.5C 134.583,175.318 127.249,196.485 100.5,211C 84.9161,217.386 69.5828,216.886 54.5,209.5C 40.6223,201.074 34.789,188.741 37,172.5C 41.8975,164.984 48.3975,163.151 56.5,167C 58.0414,168.371 59.3747,169.871 60.5,171.5C 59.9569,171.56 59.6236,171.893 59.5,172.5C 60.866,175.692 61.6993,179.026 62,182.5C 62.9354,185.595 64.7687,187.929 67.5,189.5C 85.2114,197.479 96.8781,192.145 102.5,173.5C 101.849,169.195 100.349,165.195 98,161.5C 89.6899,152.858 81.0232,144.524 72,136.5C 59.9403,124.326 57.2737,110.326 64,94.5C 78.9432,74.0564 97.7766,69.5564 120.5,81C 122.706,83.0367 124.706,85.2034 126.5,87.5 Z"/></g>
<g><path style="opacity:0.915" fill="#98b69d" d="M 229.5,76.5 C 235.649,82.0446 238.316,89.0446 237.5,97.5C 234.425,117.876 231.091,138.209 227.5,158.5C 225.784,160.447 223.617,161.781 221,162.5C 224.009,141.112 227.676,119.779 232,98.5C 233.102,90.9031 232.269,83.5697 229.5,76.5 Z"/></g>
<g><path style="opacity:0.919" fill="#98b69d" d="M 205.5,86.5 C 195.598,84.7014 188.431,88.3681 184,97.5C 177.654,124.246 172.82,151.246 169.5,178.5C 167.248,178.084 165.748,176.751 165,174.5C 164.333,170.5 164.333,166.5 165,162.5C 169.023,139.025 173.69,115.692 179,92.5C 183.758,82.0673 191.592,78.5673 202.5,82C 204.141,83.129 205.141,84.629 205.5,86.5 Z"/></g>
<g><path style="opacity:0.872" fill="#9ab69c" d="M 126.5,87.5 C 134.874,93.4509 137.041,101.118 133,110.5C 128.909,114.305 124.076,115.472 118.5,114C 116.676,113.34 115.343,112.173 114.5,110.5C 117.305,109.681 120.305,109.181 123.5,109C 125.286,108.215 126.786,107.049 128,105.5C 130.211,99.2763 129.711,93.2763 126.5,87.5 Z"/></g>
<g><path style="opacity:0.887" fill="#9ab69c" d="M 107.5,103.5 C 93.8921,101.791 89.5588,107.458 94.5,120.5C 88.0474,115.948 85.8807,109.948 88,102.5C 95.2133,94.1943 101.713,94.5276 107.5,103.5 Z"/></g>
<g><path style="opacity:0.901" fill="#97b69e" d="M 554.5,99.5 C 558.352,100.522 560.018,103.022 559.5,107C 557.804,127.418 548.47,143.085 531.5,154C 520.961,158.888 510.628,158.555 500.5,153C 499.29,151.961 498.29,150.794 497.5,149.5C 510.828,154.588 523.161,152.754 534.5,144C 546.987,131.854 553.653,117.021 554.5,99.5 Z"/></g>
<g><path style="opacity:0.911" fill="#99b69c" d="M 322.5,112.5 C 327.738,116.86 330.071,122.527 329.5,129.5C 328.392,139.705 326.392,149.705 323.5,159.5C 320.065,160.59 318.398,159.09 318.5,155C 320.096,147.116 321.929,139.282 324,131.5C 324.769,125.057 324.269,118.723 322.5,112.5 Z"/></g>
<g><path style="opacity:0.914" fill="#98b69d" d="M 272.5,127.5 C 268.702,148.659 264.202,169.659 259,190.5C 253.38,196.696 246.546,198.196 238.5,195C 237.177,194.184 236.511,193.017 236.5,191.5C 243.688,193.012 249.521,191.012 254,185.5C 258.686,164.573 263.186,143.573 267.5,122.5C 267.833,121.833 268.167,121.167 268.5,120.5C 270.11,122.725 271.443,125.059 272.5,127.5 Z"/></g>
<g><path style="opacity:0.877" fill="#96b69e" d="M 297.5,129.5 C 292.988,130.392 288.488,131.392 284,132.5C 280.988,132.274 278.155,131.441 275.5,130C 274.748,129.329 274.414,128.496 274.5,127.5C 280.427,127.88 286.094,126.88 291.5,124.5C 294.722,124.724 296.722,126.39 297.5,129.5 Z"/></g>
<g><path style="opacity:0.9" fill="#97b69d" d="M 122.5,147.5 C 127.386,150.921 130.553,155.588 132,161.5C 136.786,188.755 126.286,207.589 100.5,218C 85.4403,222.432 71.107,220.765 57.5,213C 56.2899,211.961 55.2899,210.794 54.5,209.5C 69.5828,216.886 84.9161,217.386 100.5,211C 127.249,196.485 134.583,175.318 122.5,147.5 Z"/></g>
<g><path style="opacity:0.843" fill="#98b69d" d="M 60.5,171.5 C 62.4513,172.282 63.9513,173.616 65,175.5C 66.2861,180.096 67.1194,184.763 67.5,189.5C 64.7687,187.929 62.9354,185.595 62,182.5C 61.6993,179.026 60.866,175.692 59.5,172.5C 59.6236,171.893 59.9569,171.56 60.5,171.5 Z"/></g>
<g><path style="opacity:0.904" fill="#97b69d" d="M 230.5,185.5 C 226.44,185.485 222.44,185.985 218.5,187C 213.923,191.823 208.923,196.156 203.5,200C 188.777,207.749 173.777,208.416 158.5,202C 156.382,200.951 154.716,199.451 153.5,197.5C 168.867,203.435 183.867,202.602 198.5,195C 203.5,190.667 208.5,186.333 213.5,182C 219.264,181.918 224.764,180.752 230,178.5C 231.807,180.706 231.974,183.039 230.5,185.5 Z"/></g>
</svg>
