<?xml version="1.0" encoding="utf-8"?>
<!-- Generator: Adobe Illustrator 23.1.0, SVG Export Plug-In . SVG Version: 6.00 Build 0)  -->
<svg version="1.1" id="Layer_1" xmlns="http://www.w3.org/2000/svg" xmlns:xlink="http://www.w3.org/1999/xlink" x="0px" y="0px"
	 viewBox="0 0 508 232.89" style="enable-background:new 0 0 508 232.89;" xml:space="preserve">
<style type="text/css">
	.st0{fill:#FEBC59;}
	.st1{fill:#93B59D;}
</style>
<g>
	<path class="st0" d="M53.4,201.65c-1.43-1.26-2.88-2.51-4.3-3.78c-2.35-2.11-4.03-4.69-5.09-7.65c-2.39-6.7,0.57-11.33,7.68-12.12
		c4.43-0.5,8.02,1.14,11.16,4.08c1.73,1.62,3.49,3.2,5.23,4.8c8.18,7.5,20.31,0.67,22.99-5.86c0.71-1.74,0.64-3.58-0.63-5.17
		c-0.66-1.84-2.11-2.91-3.77-3.74c-3.04-1.52-6.32-2.26-9.64-2.82c-9.04-1.53-18.09-3-26.65-6.53c-2.24-0.92-4.13-2.69-6.71-2.78
		c0,0,0.02,0.02,0.02,0.02c0-0.39-0.21-0.55-0.57-0.56c0,0,0.02,0.02,0.02,0.02c-0.01-0.37-0.23-0.53-0.58-0.56
		c0,0,0.03,0.02,0.03,0.02c-0.2-0.19-0.39-0.37-0.59-0.56c0,0,0.04,0.03,0.04,0.03c-0.27-0.19-0.54-0.38-0.8-0.56
		c0,0-0.16-0.06-0.16-0.06c-0.21-0.18-0.41-0.35-0.62-0.52c-11.06-8.96-17.02-20.96-20.13-34.45c-4.74-20.52-2.2-40.29,7.32-59.06
		c4.69-9.25,11.15-17.04,20.63-21.92c12.64-6.5,26.97-4.29,37.01,5.72c1.09,1.09,2.17,2.2,3.26,3.3c0.21,0.16,0.42,0.31,0.63,0.47
		c0,0-0.03-0.03-0.03-0.03c0.19,0.19,0.38,0.38,0.57,0.57c0,0-0.03-0.03-0.03-0.03c-0.07,0.51,0.04,0.93,0.6,1.09
		c0,0-0.01-0.02-0.01-0.02c0.05,0.26,0.01,0.58,0.15,0.79c8.17,11.98,10.59,25.65,11.24,39.7c0.29,6.29-0.57,12.62-2.16,18.76
		c-1.89,7.32-6.63,14.49-17.02,12.99c-6.52-3.72-7.58-10.27-8.66-16.78c-1.87-11.29-2.62-22.74-4.98-33.96
		c-0.96-4.6-1.78-9.3-4.62-13.27c-2.29-4.48-5.28-5.46-9.57-3c-2.13,1.22-3.99,2.8-5.59,4.73c-5.4,6.5-7.03,14.28-7.47,22.33
		c-0.61,11,0.92,21.73,5.38,31.92c2.71,6.18,5.88,12.06,10.98,16.68c0,0-0.02-0.02-0.02-0.02c0.19,0.19,0.37,0.38,0.56,0.57
		c0,0-0.02-0.02-0.02-0.02c0.18,0.24,0.36,0.47,0.54,0.71c7.24,8.11,16.99,12.3,26.5,16.85c5.7,2.73,11.21,5.69,15.49,10.47
		c0.6,0.67,1.15,1.39,1.72,2.08c0.23,0.17,0.46,0.34,0.7,0.51c0,0-0.02-0.02-0.02-0.02c-0.21,0.99,0.4,1.74,0.78,2.55
		c4.58,9.74,3.1,18.89-4.49,26.52c-10.84,10.89-23.79,13.99-38.61,10.26C58.4,203.64,56.19,201.82,53.4,201.65z"/>
	<path class="st0" d="M460.38,135.5c-6.39-2.85-6.35-8.95-6.74-14.39c-0.75-10.41-0.76-20.87-1.26-31.3
		c-0.51-10.62-1.49-21.19-5.47-31.22c-1.21-3.03-2.51-6.04-4.89-8.42c-0.19-0.16-0.39-0.33-0.58-0.49c0,0,0.03,0.03,0.03,0.03
		c-1.61-3.18-5.82-5.22-9.29-4.65c-4.6,0.75-8.43,3.02-11.54,6.29c-3.29,3.46-5.9,7.37-5.04,12.62c2.17,13.17,2.84,26.49,3.32,39.79
		c0.31,8.72,0.1,17.45,0.09,26.17c-0.01,6.67-3.05,10.42-9.5,12.09c-3.63,0.94-7.2,0.49-10.8,0l0.02,0.02
		c-0.2-0.19-0.4-0.38-0.6-0.57c-5.49-2.72-6.4-8.09-7.48-13.23c-4.23-19.99-7.62-40.13-10.07-60.42c-0.7-5.77-1.54-11.55-1.47-17.36
		c0.11-9.19,5.39-16,13.86-17.46c7.26-1.25,13.81,0.29,18.38,6.76c0.24,0.86,0.51,1.71,0.72,2.58c0.56,2.34,1.47,2.43,2.75,0.47
		c4.43-1.39,8.31-4.03,12.8-5.33c9.7-2.81,19.22-3.07,28.3,1.96c3.35,1.85,6.06,4.6,8.45,7.62c0.22,0.16,0.44,0.31,0.66,0.47
		c0,0-0.02-0.02-0.02-0.02c-0.08,0.52,0.04,0.92,0.59,1.09c0,0-0.01-0.02-0.01-0.02c-0.03,0.89,0.53,1.53,0.94,2.22
		c2.73,4.54,4.71,9.39,6.25,14.46c4.16,13.71,5.45,27.75,4.76,41.98c-0.3,6.05-1.06,12.09-3.07,17.9
		C471.87,132.65,468.29,135.34,460.38,135.5z"/>
	<path class="st0" d="M297.82,156.2c-3.75-2.1-5.62-5.38-6.6-9.51c-3.68-15.46-6.15-31.13-8.67-46.79
		c-1.56-9.68-2.69-19.41-3.64-29.15c-0.53-5.39-0.36-10.72,2.6-15.58c5.94-9.76,21.53-10.72,28.65-1.76c0.28,0.36,0.6,0.69,0.9,1.03
		c0.19,0.76,0.44,1.52,0.55,2.29c0.32,2.27,1.26,2.72,2.99,1.1c5.92-3.03,11.89-5.97,18.56-6.99c12.28-1.89,23.02,0.62,30.93,11
		c0.23,0.32,0.46,0.65,0.69,0.97c0,0-0.02-0.03-0.02-0.03c0.19,0.19,0.37,0.38,0.56,0.57c0,0-0.01-0.01-0.01-0.01
		c1.4,3.63,3.68,6.83,5.05,10.5c5.65,15.11,7.53,30.77,6.89,46.76c-0.27,6.59-1.03,13.19-3.19,19.51
		c-2.54,7.41-7.08,10.48-14.25,9.69c-3.39-0.89-4.68-3.52-5.41-6.57c-1.01-4.17-1.5-8.42-1.61-12.68c-0.29-11-0.36-22.01-1.25-32.98
		c-0.79-9.8-2.23-19.51-6.87-28.41c-0.88-1.7-1.81-3.37-3.29-4.65c-1.24-2.45-3.33-3.8-5.9-4.44c-5.25-1.31-9.49,1.08-13.28,4.15
		c-4.37,3.55-8.02,8.04-7.05,13.99c2.19,13.4,2.79,26.9,3.44,40.4c0.43,8.9,0.11,17.84,0.12,26.77c0.01,4.66-2.19,7.89-6.31,10.03
		C307.64,157.87,302.79,157.76,297.82,156.2z"/>
	<path class="st0" d="M263.86,92.82c-3.04-0.14-4.09-2.3-4.83-4.75c-1.12-3.72-1.91-7.56-4.22-10.81c-0.36-0.51-0.82-0.96-1.23-1.43
		c-0.21-0.15-0.41-0.3-0.62-0.45c0,0,0.04,0.02,0.04,0.02c-2.59-4.54-7.5-6.23-12.02-4.18c-4.76,2.15-7.59,6.12-9.91,10.52
		c-1.49,2.82-2.6,5.83-2.4,9.09c0.34,5.43,0.98,10.85,1.21,16.28c0.52,12.25,1.45,24.5,1.05,36.76c-0.19,5.87-0.19,11.8-1.49,17.6
		c-0.72,3.19-2.46,5.27-5.6,6.44c-3.56,1.33-6.97,0.73-10.43-0.16c-3.29-1.53-5.05-4.27-6.22-7.57
		c-4.29-12.11-6.94-24.63-9.56-37.16c-3.38-16.17-6.1-32.46-8.66-48.78c-1.79-11.42,5.95-22.02,17.35-23.28
		c6.42-0.71,11.21,2.35,14.76,7.53c0.78,2.1,1.52,4.22,2.36,6.3c0.75,1.85,1.93,2.62,3.71,1.05c2.55-2.02,5.02-4.15,7.67-6.04
		c11.15-7.95,24.11-5.8,32.24,5.27c0.24,0.16,0.47,0.33,0.7,0.49c0,0-0.02-0.02-0.02-0.02c0.11,0.52,0.08,1.11,0.34,1.53
		c2.21,3.59,3.47,7.53,4.31,11.61c0.81,3.91,0.33,7.56-2.52,10.61C268.24,91.06,265.97,91.82,263.86,92.82z"/>
	<path class="st0" d="M137.22,166.13c-14.41-11.41-20.61-27.03-22.9-44.61c-1.37-10.55-0.55-20.85,4.01-30.63
		c6.2-13.31,18.75-18.01,32.1-16.35c9.09,1.13,16.07,5.95,21.98,12.62c0.2,0.27,0.39,0.54,0.59,0.81c0,0-0.02-0.03-0.02-0.03
		c0.19,0.19,0.38,0.38,0.57,0.58c0,0-0.02-0.02-0.02-0.02c0.02,0.35,0.18,0.57,0.56,0.57c0,0-0.02-0.02-0.02-0.02
		c-0.1,0.52,0,0.93,0.58,1.1c0,0-0.01-0.02-0.01-0.02c0.01,0.18-0.03,0.4,0.05,0.53c7.04,11.7,9.57,24.45,8.65,37.91
		c-0.65,9.55-3.23,18.52-8.66,26.62c-6.83,10.19-21.71,18.46-35.45,11.57c-0.23-0.11-0.53-0.07-0.8-0.1c0,0,0.02,0.01,0.02,0.01
		C138.22,166.06,137.75,166.03,137.22,166.13z M145.58,155.68c0.22,0.2,0.45,0.39,0.67,0.59c2.97,1.55,4.9,1.21,6.89-1.34
		c1.48-1.89,2.31-4.11,2.85-6.42c3-12.79,2.49-25.56-0.37-38.29c-1.26-5.59-2.83-11.09-6.6-15.65c-2.46-3.37-5.56-5.73-9.94-4.82
		c-4.25,0.89-5.28,4.59-6.13,8.2c-1.82,7.73-1.37,15.54-0.39,23.28c1.1,8.73,2.94,17.34,6.47,25.48c1.5,3.47,3.04,6.96,6.57,8.98
		L145.58,155.68z"/>
	<path class="st1" d="M297.82,156.2c4.96,1.55,9.82,1.67,14.59-0.81c4.11-2.13,6.31-5.37,6.31-10.03
		c-0.01-8.92,0.31-17.86-0.12-26.77c-0.65-13.5-1.25-27.01-3.44-40.4c-0.97-5.95,2.68-10.44,7.05-13.99
		c3.79-3.07,8.03-5.46,13.28-4.15c2.57,0.64,4.67,1.99,5.9,4.44c-9.22-0.84-17.54,4.09-20.71,12.13c-0.97,2.47-1.24,5-0.72,7.5
		c1.51,7.33,1.94,14.77,2.44,22.19c0.82,12.34,1.33,24.71,1.13,37.08c-0.05,2.82-0.23,5.63-0.4,8.44c-0.14,2.51-1.44,4.47-3.22,6.12
		c-4.68,4.31-13.59,5.02-18.94,1.56C299.64,158.67,298.48,157.67,297.82,156.2z"/>
	<path class="st1" d="M398.71,142.04c3.6,0.49,7.17,0.95,10.8,0c6.45-1.68,9.49-5.42,9.5-12.09c0.01-8.73,0.22-17.46-0.09-26.17
		c-0.48-13.31-1.15-26.62-3.32-39.79c-0.87-5.25,1.74-9.16,5.04-12.62c3.11-3.26,6.93-5.54,11.54-6.29
		c3.47-0.57,7.68,1.48,9.29,4.65c-9.54-1.02-15.72,3.77-20.13,11.59c-1.35,2.4-1.61,5.06-1.08,7.68c1.44,7.05,1.94,14.21,2.43,21.35
		c0.99,14.51,1.29,29.04,1.2,43.59c-0.05,8.18-5,11.87-11.7,12.95c-4.1,0.66-8.21,0.21-11.67-2.58
		C399.74,143.68,398.82,143.18,398.71,142.04z"/>
	<path class="st1" d="M213.41,167.74c3.46,0.89,6.87,1.49,10.43,0.16c3.14-1.17,4.88-3.25,5.6-6.44c1.3-5.8,1.3-11.73,1.49-17.6
		c0.4-12.26-0.53-24.51-1.05-36.76c-0.23-5.43-0.87-10.85-1.21-16.28c-0.2-3.26,0.91-6.27,2.4-9.09c2.32-4.4,5.15-8.37,9.91-10.52
		c4.52-2.05,9.43-0.36,12.02,4.18c-4.47-1.48-8.3-0.23-11.49,2.97c-5.79,5.8-8.8,12.39-7.96,21.05c1.81,18.74,2.41,37.57,1.77,56.41
		c-0.1,3.08-0.58,6.15-1.03,9.2c-0.58,3.98-2.79,6.54-6.78,7.65C222.02,174.19,215.72,172.07,213.41,167.74z"/>
	<path class="st1" d="M138.43,166.65c0.27,0.03,0.58-0.01,0.8,0.1c13.73,6.89,28.62-1.38,35.45-11.57
		c5.43-8.1,8.01-17.07,8.66-26.62c0.92-13.46-1.61-26.22-8.65-37.91c-0.08-0.14-0.04-0.35-0.05-0.53c1.51-0.13,1.91,1.21,2.56,2.08
		c6.52,8.69,9.61,18.63,10.66,29.33c1.17,11.95-0.43,23.44-6.15,34.07c-5.98,11.11-15.01,17.98-28.11,18.05
		c-5.33,0.03-10.1-2.17-14.3-5.46C138.81,167.81,138.19,167.45,138.43,166.65z"/>
	<path class="st1" d="M460.38,135.5c7.91-0.17,11.49-2.85,14.08-10.35c2.01-5.81,2.78-11.85,3.07-17.9
		c0.7-14.23-0.59-28.27-4.76-41.98c-1.54-5.07-3.52-9.92-6.25-14.46c-0.42-0.69-0.98-1.33-0.94-2.22c2.51,0.77,3.36,3.14,4.61,5.02
		c6.12,9.2,8.84,19.66,10.57,30.36c2.23,13.79,2.59,27.64-0.44,41.39c-1.41,6.38-3.5,12.36-10.94,14.22
		C465.44,140.56,461.89,138.99,460.38,135.5z"/>
	<path class="st1" d="M359.81,149.8c7.17,0.79,11.71-2.28,14.25-9.69c2.16-6.32,2.93-12.92,3.19-19.51
		c0.65-15.99-1.24-31.65-6.89-46.76c-1.37-3.67-3.65-6.86-5.05-10.5c3.3,1.92,4.81,5.28,6.55,8.38c4.83,8.6,7.16,18.05,8.64,27.67
		c2.06,13.35,2.39,26.76-0.46,40.07c-1.29,6.01-2.99,11.95-9.66,14.47C365.68,155.7,361.55,154.08,359.81,149.8z"/>
	<path class="st1" d="M53.4,201.65c2.8,0.17,5,1.99,7.66,2.65c14.82,3.73,27.77,0.64,38.61-10.26c7.59-7.63,9.07-16.78,4.49-26.52
		c-0.38-0.81-0.99-1.56-0.78-2.55c8.09,6.06,10.43,19.14,5.02,27.99c-7.82,12.78-23.67,19.56-38.65,16.61
		C63.58,208.37,57.78,206.49,53.4,201.65z"/>
	<path class="st1" d="M82.46,125.19c10.39,1.51,15.13-5.67,17.02-12.99c1.59-6.14,2.45-12.47,2.16-18.76
		c-0.65-14.05-3.07-27.71-11.24-39.7c-0.14-0.2-0.1-0.52-0.15-0.79c2.22,0.67,3.04,2.76,4.2,4.38c6.18,8.61,9.31,18.44,10.88,28.77
		c1.75,11.52,1.71,22.96-2.46,34.09c-1.7,4.55-4.78,7.65-9.4,9.18C89.21,130.79,84.93,129.14,82.46,125.19z"/>
	<path class="st1" d="M57.94,133.84c-5.1-4.62-8.27-10.5-10.98-16.68c-4.46-10.19-5.99-20.92-5.38-31.92
		c0.45-8.05,2.08-15.83,7.47-22.33c1.6-1.93,3.45-3.5,5.59-4.73c4.29-2.46,7.28-1.48,9.57,3c-5.58,0.35-9.05,3.96-11.99,8.08
		c-3.74,5.25-5.25,11.39-5.73,17.67c-1.06,13.83,0.85,27.15,7.42,39.62C55.2,129.02,57.38,130.99,57.94,133.84z"/>
	<path class="st1" d="M263.86,92.82c2.11-1,4.38-1.76,6.03-3.52c2.85-3.05,3.33-6.7,2.52-10.61c-0.85-4.08-2.1-8.02-4.31-11.61
		c-0.26-0.42-0.23-1.02-0.34-1.53c5.93,5.08,8.4,11.87,9.47,19.31c0.7,4.88-1.61,9.08-5.98,11.17
		C267.22,97.94,265.38,97.14,263.86,92.82z"/>
	<path class="st1" d="M43.66,160.06c2.58,0.09,4.47,1.86,6.71,2.78c8.57,3.53,17.61,5,26.65,6.53c3.32,0.56,6.6,1.3,9.64,2.82
		c1.66,0.83,3.11,1.9,3.77,3.74c-11.23-3.29-23.17-3.64-34.11-8.17C51.69,165.85,47.19,163.76,43.66,160.06z"/>
	<path class="st1" d="M227.16,65.84c-1.78,1.56-2.95,0.8-3.71-1.05c-0.84-2.08-1.58-4.2-2.36-6.3
		C224.56,59.74,225.49,63.09,227.16,65.84z"/>
	<path class="st1" d="M414.82,42.83c-1.28,1.96-2.2,1.87-2.75-0.47c-0.21-0.87-0.48-1.72-0.72-2.58
		C412.91,40.33,413.91,41.53,414.82,42.83z"/>
	<path class="st1" d="M314.6,57.83c-1.73,1.62-2.67,1.18-2.99-1.1c-0.11-0.77-0.36-1.53-0.55-2.29
		C312.66,55.14,313.83,56.28,314.6,57.83z"/>
	<path class="st1" d="M465.6,48.61c-0.56-0.17-0.68-0.57-0.59-1.09C465.5,47.72,465.82,48.02,465.6,48.61z"/>
	<path class="st1" d="M364.78,62.81c-0.23-0.32-0.46-0.65-0.69-0.97C364.63,61.94,364.91,62.24,364.78,62.81z"/>
	<path class="st1" d="M90.26,52.98c-0.56-0.16-0.67-0.58-0.6-1.09C90.12,52.11,90.42,52.42,90.26,52.98z"/>
	<path class="st1" d="M174.65,90.13c-0.57-0.17-0.67-0.58-0.58-1.1C174.61,89.21,174.92,89.52,174.65,90.13z"/>
	<path class="st1" d="M137.22,166.13c0.53-0.1,1-0.06,1.22,0.53C137.85,166.91,137.53,166.55,137.22,166.13z"/>
	<path class="st1" d="M173,87.96c-0.2-0.27-0.39-0.54-0.59-0.81C172.61,87.42,172.8,87.69,173,87.96z"/>
	<path class="st1" d="M173.54,88.5c-0.19-0.19-0.38-0.38-0.57-0.58C173.33,87.95,173.53,88.14,173.54,88.5z"/>
	<path class="st1" d="M174.09,89.05c-0.38,0-0.54-0.22-0.56-0.57C173.89,88.5,174.07,88.7,174.09,89.05z"/>
	<path class="st1" d="M89.68,51.92c-0.19-0.19-0.38-0.38-0.57-0.57C89.3,51.54,89.49,51.73,89.68,51.92z"/>
	<path class="st1" d="M365.32,63.36c-0.19-0.19-0.37-0.38-0.56-0.57C365.18,62.75,365.37,62.94,365.32,63.36z"/>
	<path class="st1" d="M267.78,65.56c-0.23-0.16-0.47-0.33-0.7-0.49C267.44,65.04,267.69,65.18,267.78,65.56z"/>
	<path class="st1" d="M465.03,47.54c-0.22-0.16-0.44-0.31-0.66-0.47C464.58,47.23,464.81,47.38,465.03,47.54z"/>
	<path class="st1" d="M441.44,49.7c0.19,0.16,0.39,0.33,0.58,0.49C441.83,50.02,441.63,49.86,441.44,49.7z"/>
	<path class="st1" d="M59,135.08c-0.18-0.24-0.36-0.47-0.54-0.71C58.89,134.42,59.01,134.7,59,135.08z"/>
	<path class="st1" d="M398.13,141.49c0.2,0.19,0.4,0.38,0.6,0.57C398.53,141.87,398.33,141.68,398.13,141.49z"/>
	<path class="st1" d="M40.43,157.32c0.21,0.17,0.41,0.35,0.62,0.52C40.85,157.67,40.64,157.49,40.43,157.32z"/>
	<path class="st1" d="M41.22,157.91c0.27,0.19,0.54,0.38,0.8,0.56C41.75,158.28,41.48,158.09,41.22,157.91z"/>
	<path class="st1" d="M58.48,134.39c-0.19-0.19-0.37-0.38-0.56-0.57C58.34,133.78,58.48,134.02,58.48,134.39z"/>
	<path class="st1" d="M42.55,158.98c0.34,0.03,0.57,0.19,0.58,0.56C42.78,159.51,42.58,159.33,42.55,158.98z"/>
	<path class="st1" d="M43.1,159.52c0.36,0.01,0.58,0.18,0.57,0.56C43.33,160.05,43.13,159.87,43.1,159.52z"/>
	<path class="st1" d="M89.14,51.37c-0.21-0.16-0.42-0.31-0.63-0.47C88.73,51.06,88.93,51.22,89.14,51.37z"/>
	<path class="st1" d="M103.4,165c-0.23-0.17-0.46-0.34-0.7-0.51C103.09,164.46,103.33,164.61,103.4,165z"/>
	<path class="st1" d="M252.96,75.36c0.2,0.15,0.41,0.3,0.62,0.45C253.37,75.67,253.17,75.52,252.96,75.36z"/>
	<path class="st1" d="M41.98,158.44c0.2,0.19,0.39,0.37,0.59,0.56C42.22,158.98,42.02,158.8,41.98,158.44z"/>
	<path class="st1" d="M149.02,94.57c-7.26-1.29-10.2,0.91-11.67,8.67c-1.56,8.23-0.89,16.43,0.23,24.64
		c1.32,9.67,3.99,18.94,8.02,27.83c-3.52-2.02-5.07-5.52-6.57-8.98c-3.52-8.14-5.37-16.75-6.47-25.48
		c-0.98-7.74-1.44-15.55,0.39-23.28c0.85-3.61,1.88-7.31,6.13-8.2C143.46,88.84,146.56,91.2,149.02,94.57z"/>
	<path class="st1" d="M145.58,155.68c0.22,0.2,0.45,0.39,0.67,0.59C146.02,156.07,145.8,155.88,145.58,155.68z"/>
</g>
</svg>
