<?xml version="1.0" encoding="UTF-8"?>
<svg xmlns="http://www.w3.org/2000/svg" version="1.1" width="143px" height="143px" style="shape-rendering:geometricPrecision; text-rendering:geometricPrecision; image-rendering:optimizeQuality; fill-rule:evenodd; clip-rule:evenodd" xmlns:xlink="http://www.w3.org/1999/xlink">
<g><path style="opacity:0.911" fill="#fcbc59" d="M 67.5,-0.5 C 70.5,-0.5 73.5,-0.5 76.5,-0.5C 98.8333,21.1667 120.833,43.1667 142.5,65.5C 142.5,69.1667 142.5,72.8333 142.5,76.5C 139.122,82.0248 134.122,84.6915 127.5,84.5C 127.667,100.17 127.5,115.837 127,131.5C 124.349,137.67 119.849,141.337 113.5,142.5C 105.167,142.5 96.8333,142.5 88.5,142.5C 87.3117,141.636 86.1451,140.636 85,139.5C 84.6667,126.833 84.3333,114.167 84,101.5C 82.992,99.741 81.492,98.5743 79.5,98C 74.1667,97.3333 68.8333,97.3333 63.5,98C 61.3333,98.8333 59.8333,100.333 59,102.5C 58.6667,114.833 58.3333,127.167 58,139.5C 57.015,140.814 55.8484,141.814 54.5,142.5C 51.5,142.5 48.5,142.5 45.5,142.5C 44.8333,141.167 44.1667,141.167 43.5,142.5C 39.1667,142.5 34.8333,142.5 30.5,142.5C 23.1525,141.661 18.3192,137.661 16,130.5C 15.5001,115.17 15.3334,99.837 15.5,84.5C 6.20584,84.7036 1.20584,80.2036 0.5,71C 0.329086,67.8707 1.16242,65.0373 3,62.5C 24.0906,40.9074 45.5906,19.9074 67.5,-0.5 Z M 69.5,9.5 C 71.1992,9.33982 72.8659,9.50649 74.5,10C 93.6667,29.1667 112.833,48.3333 132,67.5C 134.379,71.029 133.546,73.529 129.5,75C 125.668,74.9618 122.168,75.7951 119,77.5C 118.959,95.2324 118.293,112.899 117,130.5C 116.25,131.126 115.416,131.626 114.5,132C 107.842,132.5 101.175,132.666 94.5,132.5C 94.6665,122.494 94.4998,112.494 94,102.5C 91.1738,91.0726 83.8405,86.406 72,88.5C 64.2004,87.105 57.5338,89.105 52,94.5C 51.1376,96.087 50.4709,97.7536 50,99.5C 49.5002,110.495 49.3335,121.495 49.5,132.5C 42.4921,132.666 35.4921,132.5 28.5,132C 27.6667,131.167 26.8333,130.333 26,129.5C 24.7072,111.899 24.0406,94.2324 24,76.5C 19.8394,75.8125 15.6727,74.9791 11.5,74C 10.7069,72.9148 10.0402,71.7481 9.5,70.5C 29.5212,50.1458 49.5212,29.8125 69.5,9.5 Z"/></g>
</svg>
