<?xml version="1.0" encoding="UTF-8"?>
<!DOCTYPE svg PUBLIC "-//W3C//DTD SVG 1.1//EN" "http://www.w3.org/Graphics/SVG/1.1/DTD/svg11.dtd">
<svg xmlns="http://www.w3.org/2000/svg" version="1.1" width="155px" height="155px" style="shape-rendering:geometricPrecision; text-rendering:geometricPrecision; image-rendering:optimizeQuality; fill-rule:evenodd; clip-rule:evenodd" xmlns:xlink="http://www.w3.org/1999/xlink">
<g><path style="opacity:0.973" fill="#f8de27" d="M 142.5,105.5 C 142.303,98.349 141.137,91.349 139,84.5C 133.376,78.994 126.543,76.6606 118.5,77.5C 114.446,36.6313 93.1129,23.4647 54.5,38C 49.044,41.7873 43.8774,45.954 39,50.5C 36.4728,54.2211 34.4728,58.2211 33,62.5C 23.5271,69.4496 19.5271,78.7829 21,90.5C 21.8917,93.9518 23.5584,96.9518 26,99.5C 26.4998,108.827 26.6665,118.161 26.5,127.5C 7.27801,106.92 1.44467,82.9197 9,55.5C 20.8874,24.2916 43.5541,7.62489 77,5.5C 106.498,7.03997 128.165,20.7066 142,46.5C 150.438,66.2256 150.605,85.8923 142.5,105.5 Z"/></g>
<g><path style="opacity:0.995" fill="#0f0d0d" d="M 142.5,105.5 C 140.841,110.827 138.174,115.493 134.5,119.5C 134.843,110.938 134.176,102.605 132.5,94.5C 132.747,91.495 131.747,88.995 129.5,87C 126.183,86.5017 122.85,86.335 119.5,86.5C 119.552,90.1981 119.886,93.8648 120.5,97.5C 120.5,109.5 120.5,121.5 120.5,133.5C 118.049,136.277 115.049,138.277 111.5,139.5C 111.667,119.497 111.5,99.4972 111,79.5C 109.576,72.5792 107.743,65.9125 105.5,59.5C 103.415,51.5806 98.4149,46.4139 90.5,44C 73.5308,40.0027 59.1975,44.336 47.5,57C 57.2036,57.2137 66.8702,57.8803 76.5,59C 90.5908,64.6837 95.4241,74.8504 91,89.5C 88.9488,94.2144 86.1155,98.3811 82.5,102C 67.1733,109.602 51.5066,110.436 35.5,104.5C 35.5,107.167 35.5,109.833 35.5,112.5C 34.5084,119.648 34.175,126.981 34.5,134.5C 31.7928,132.157 29.1261,129.823 26.5,127.5C 26.6665,118.161 26.4998,108.827 26,99.5C 23.5584,96.9518 21.8917,93.9518 21,90.5C 19.5271,78.7829 23.5271,69.4496 33,62.5C 34.4728,58.2211 36.4728,54.2211 39,50.5C 43.8774,45.954 49.044,41.7873 54.5,38C 93.1129,23.4647 114.446,36.6313 118.5,77.5C 126.543,76.6606 133.376,78.994 139,84.5C 141.137,91.349 142.303,98.349 142.5,105.5 Z"/></g>
<g><path style="opacity:1" fill="#ea2024" d="M 105.5,59.5 C 109.63,83.9131 107.13,107.58 98,130.5C 96.204,133.927 94.0373,137.094 91.5,140C 78.7754,144.513 65.7754,145.513 52.5,143C 46.5893,140.334 42.0893,136.167 39,130.5C 37.508,124.545 36.3413,118.545 35.5,112.5C 35.5,109.833 35.5,107.167 35.5,104.5C 51.5066,110.436 67.1733,109.602 82.5,102C 86.1155,98.3811 88.9488,94.2144 91,89.5C 95.4241,74.8504 90.5908,64.6837 76.5,59C 66.8702,57.8803 57.2036,57.2137 47.5,57C 59.1975,44.336 73.5308,40.0027 90.5,44C 98.4149,46.4139 103.415,51.5806 105.5,59.5 Z"/></g>
<g><path style="opacity:1" fill="#79ceec" d="M 74.5,67.5 C 77.3549,70.5919 78.1882,74.2586 77,78.5C 75.2068,81.2953 73.0402,83.7953 70.5,86C 58.1849,87.8501 45.8515,87.8501 33.5,86C 31.0771,84.4293 29.7438,82.2626 29.5,79.5C 31.5921,74.2395 35.2588,70.4062 40.5,68C 51.8589,66.26 63.1922,66.0933 74.5,67.5 Z"/></g>
<g><path style="opacity:1" fill="#f7fcfe" d="M 51.5,67.5 C 55.3076,67.1632 58.9743,67.6632 62.5,69C 64.4644,71.1675 64.7978,73.5008 63.5,76C 54.7511,78.4951 45.9178,78.9951 37,77.5C 36.1751,75.2992 36.6751,73.4659 38.5,72C 42.7146,69.7632 47.048,68.2632 51.5,67.5 Z"/></g>
<g><path style="opacity:1" fill="#215785" d="M 74.5,67.5 C 82.977,69.4293 86.1437,74.7626 84,83.5C 81.9323,91.9013 76.7657,97.4013 68.5,100C 56.918,101.816 45.918,100.15 35.5,95C 32.9598,92.7953 30.7932,90.2953 29,87.5C 28.1993,84.633 28.3659,81.9664 29.5,79.5C 29.7438,82.2626 31.0771,84.4293 33.5,86C 45.8515,87.8501 58.1849,87.8501 70.5,86C 73.0402,83.7953 75.2068,81.2953 77,78.5C 78.1882,74.2586 77.3549,70.5919 74.5,67.5 Z"/></g>
<g><path style="opacity:0.964" fill="#891736" d="M 105.5,59.5 C 107.743,65.9125 109.576,72.5792 111,79.5C 111.5,99.4972 111.667,119.497 111.5,139.5C 97.9059,147.158 83.2393,149.991 67.5,148C 55.2959,146.225 44.2959,141.725 34.5,134.5C 34.175,126.981 34.5084,119.648 35.5,112.5C 36.3413,118.545 37.508,124.545 39,130.5C 42.0893,136.167 46.5893,140.334 52.5,143C 65.7754,145.513 78.7754,144.513 91.5,140C 94.0373,137.094 96.204,133.927 98,130.5C 107.13,107.58 109.63,83.9131 105.5,59.5 Z"/></g>
<g><path style="opacity:1" fill="#e42124" d="M 132.5,94.5 C 132.66,96.1992 132.494,97.8659 132,99.5C 128.35,97.9538 124.516,97.2871 120.5,97.5C 119.886,93.8648 119.552,90.1981 119.5,86.5C 122.85,86.335 126.183,86.5017 129.5,87C 131.747,88.995 132.747,91.495 132.5,94.5 Z"/></g>
<g><path style="opacity:0.972" fill="#841836" d="M 132.5,94.5 C 134.176,102.605 134.843,110.938 134.5,119.5C 130.812,125.188 126.145,129.855 120.5,133.5C 120.5,121.5 120.5,109.5 120.5,97.5C 124.516,97.2871 128.35,97.9538 132,99.5C 132.494,97.8659 132.66,96.1992 132.5,94.5 Z"/></g>
</svg>
